PathFileType	4	(X/Y/Z)	 s03c0102.trc
DataRate	CameraRate	NumFrames	NumMarkers	Units	OrigDataRate	OrigDataStartFrame	OrigNumFrames
200	200	5	52	mm	200	751	2000
Frame#	Time	racr			lacr			c7			jug			rlel			rdr			llel			ldr			s2			lic			ric			lasi			rasi			rpsi			lpsi			rgt			lgt			rth1			rth2			rth3			rth4			rlfc			rmfc			rsh1			rsh2			rsh3			rsh4			rlmal			rmmal			rcal			rtoe			rmt5			rmt1			lth1			lth2			lth4			lth3			llfc			lmfc			lsh1			lsh2			lsh3			lsh4			llmal			lmmal			lcal			ltoe			lmt1			lmt5			SBIKE			LBIKE			RBIKE			
		X1	Y1	Z1	X2	Y2	Z2	X3	Y3	Z3	X4	Y4	Z4	X5	Y5	Z5	X6	Y6	Z6	X7	Y7	Z7	X8	Y8	Z8	X9	Y9	Z9	X10	Y10	Z10	X11	Y11	Z11	X12	Y12	Z12	X13	Y13	Z13	X14	Y14	Z14	X15	Y15	Z15	X16	Y16	Z16	X17	Y17	Z17	X18	Y18	Z18	X19	Y19	Z19	X20	Y20	Z20	X21	Y21	Z21	X22	Y22	Z22	X23	Y23	Z23	X24	Y24	Z24	X25	Y25	Z25	X26	Y26	Z26	X27	Y27	Z27	X28	Y28	Z28	X29	Y29	Z29	X30	Y30	Z30	X31	Y31	Z31	X32	Y32	Z32	X33	Y33	Z33	X34	Y34	Z34	X35	Y35	Z35	X36	Y36	Z36	X37	Y37	Z37	X38	Y38	Z38	X39	Y39	Z39	X40	Y40	Z40	X41	Y41	Z41	X42	Y42	Z42	X43	Y43	Z43	X44	Y44	Z44	X45	Y45	Z45	X46	Y46	Z46	X47	Y47	Z47	X48	Y48	Z48	X49	Y49	Z49	X50	Y50	Z50	X51	Y51	Z51	X52	Y52	Z52	
751	3.7550	502.545319	1400.157846	-122.648481	420.623523	1418.884655	-412.769929	398.027462	1501.085875	-250.338181	403.009057	1324.051044	-268.211776	554.095402	1153.390226	9.012809	749.994261	938.039819	-37.220874	514.486949	1171.211858	-469.113073	743.524511	957.107044	-416.131299	-110.743375	1216.848916	-157.009803	21.437523	1275.517704	-359.978282	84.731889	1239.304048	1.596472	57.336706	1203.344260	-327.298941	104.468850	1174.652401	-48.931552	-73.107702	1263.030221	-110.321553	-85.267875	1272.585368	-189.500490	16.317445	1114.000246	10.166960	-9.148373	1193.365527	-376.941214	93.590279	969.579820	21.055125	162.558679	913.122769	20.866358	195.368098	834.305013	9.980143	191.436250	934.589047	10.653328	251.192487	720.697536	-25.427717	254.688356	709.610687	-144.680111	195.953240	563.426850	-2.670502	191.854430	475.542455	-20.072516	144.315978	401.287585	-24.111994	220.757137	469.976912	-45.020549	95.498069	278.388770	-51.089750	123.969879	289.440987	-130.409988	28.755254	253.535989	-89.012109	321.997423	153.643782	-110.425641	205.627990	166.734250	-34.070716	231.880969	184.501414	-148.557742	113.746717	1129.331507	-427.742980	198.205058	1120.863607	-443.612627	213.794484	1152.629475	-431.608638	268.969310	1068.290285	-459.929742	402.509505	1024.141960	-465.096320	426.003803	1007.484186	-333.453753	325.234122	868.010577	-471.165694	309.784775	787.017093	-446.224281	251.133942	719.451881	-433.937363	340.259810	776.705195	-425.942529	190.626078	611.134611	-406.943831	228.753326	625.586580	-321.290000	120.377201	579.205540	-355.974722	419.494667	502.821438	-350.688155	326.506738	521.038532	-309.088080	299.627864	506.521374	-424.334713	-211.891310	946.825548	-225.081623	-4.564806	84.730719	-432.632722	-8.905642	80.964877	-32.227151	
752	3.7600	502.791866	1398.326357	-123.638710	419.578378	1418.855545	-413.404794	398.075593	1500.105122	-250.680025	402.458128	1323.130146	-269.214930	552.382489	1151.558647	9.505775	749.445303	937.542065	-36.971297	512.562648	1170.918236	-470.050867	742.198930	957.625399	-416.200921	-110.954845	1217.191922	-157.433195	20.485362	1276.557509	-359.907385	84.310544	1238.637870	1.872802	57.720655	1203.825255	-329.656547	103.689648	1174.298448	-49.033590	-73.389488	1263.205438	-110.415172	-85.266824	1272.914214	-189.533572	15.853928	1114.028681	9.975182	-7.259485	1194.202531	-380.470368	94.520365	970.428327	21.201406	164.319386	915.126263	21.353963	198.373153	836.727926	10.867433	192.855886	937.000080	11.015853	255.376630	723.485197	-24.027475	259.486472	712.296044	-143.359387	196.892597	567.275824	-1.768835	190.710245	479.714768	-19.348102	141.390211	406.595100	-23.635068	219.564322	473.482002	-44.260666	89.841261	285.014054	-51.130122	118.765304	295.487648	-130.321710	22.725367	261.960737	-89.340008	313.013968	153.883264	-110.412462	197.151194	170.559318	-34.141069	224.064821	187.200594	-148.590586	114.625501	1127.695929	-425.818631	199.042635	1118.879499	-441.815837	214.202399	1149.844169	-427.811844	269.644351	1065.805321	-457.422107	403.415585	1020.963315	-461.729160	424.763868	1004.283957	-329.905917	327.644574	863.774950	-468.440320	312.862650	782.502752	-444.377053	254.848854	714.249473	-433.063983	343.390820	772.272261	-424.029867	195.937871	604.095171	-407.035759	233.907335	618.921137	-320.216517	126.158674	569.521403	-356.562351	427.658009	503.596573	-350.735291	333.983169	518.517194	-309.191459	307.766099	503.089193	-424.589249	-211.938623	946.822033	-225.007027	-4.607582	84.757883	-432.593433	-9.188302	81.288877	-32.153340	
753	3.7650	502.910375	1396.714310	-124.411816	418.484284	1418.704810	-413.878202	398.041244	1499.234649	-250.991874	401.770226	1322.297484	-269.952489	550.942520	1150.002164	10.074499	748.951251	937.220350	-36.583524	510.365123	1170.334927	-470.883696	740.876076	957.855824	-416.150311	-111.111832	1217.198473	-157.825420	19.905129	1277.238978	-360.123009	83.510680	1237.812741	1.587497	57.543716	1204.307891	-330.411583	102.919793	1173.931267	-49.208251	-73.854400	1263.260848	-110.545034	-85.254215	1273.053896	-189.647989	15.424809	1113.973750	9.737728	-7.128089	1193.958439	-381.222861	95.528952	971.686799	21.422643	166.183280	917.312350	21.784954	201.504067	839.455520	11.670459	194.180507	939.950873	11.875727	259.865706	726.611268	-22.657749	264.711220	715.324371	-141.959598	198.178699	571.663402	-0.924537	189.945111	484.273884	-18.707331	138.910062	412.333242	-23.267794	218.680852	477.435382	-43.588677	84.639130	292.199784	-51.200531	114.300165	301.867508	-130.260676	17.176593	271.022056	-89.738483	304.272348	154.375960	-110.295286	188.933644	174.892934	-34.187543	217.308877	191.037030	-147.439278	115.456295	1125.899948	-425.006977	199.924286	1116.302855	-440.234851	215.217161	1147.204490	-426.307919	270.235479	1062.716212	-455.175013	404.233322	1016.462386	-457.820054	423.631699	1000.053493	-326.280717	329.652942	858.804918	-465.735864	315.691041	777.045429	-442.620627	258.283044	708.091243	-432.116302	346.232144	766.954130	-422.167887	201.127984	596.158469	-407.053261	238.913436	611.480052	-319.157816	131.666633	559.181387	-356.967020	435.391725	503.927703	-350.573400	341.108555	515.428950	-308.984060	316.009322	498.441657	-423.962367	-211.986551	946.838468	-224.914790	-4.633020	84.782299	-432.591867	-9.221604	81.290740	-32.134596	
754	3.7700	502.693191	1395.224022	-125.672134	417.457444	1418.456435	-414.480741	397.916211	1498.352236	-251.260071	400.998011	1321.481973	-270.877959	549.632167	1148.601124	10.667034	748.486733	936.902176	-36.190928	508.822623	1169.658627	-470.586831	739.380896	958.048718	-415.884279	-110.809217	1217.810578	-160.559775	19.455939	1277.648787	-360.423204	83.011392	1237.365334	0.981412	57.704658	1204.728518	-330.998552	102.116459	1173.631850	-49.467291	-74.341988	1263.157228	-110.793075	-85.264031	1272.931270	-189.861391	15.006769	1113.858211	9.472045	-6.629251	1193.234758	-381.802353	96.720095	972.700780	21.405822	168.215684	919.650778	22.113139	204.827450	842.322752	12.338272	195.871528	942.643429	12.267565	264.574948	730.092441	-21.369481	269.955321	718.765600	-140.817076	199.745055	576.318255	-0.158037	189.472963	489.171753	-18.182796	136.836586	418.496544	-23.042353	218.061036	481.760274	-43.167593	79.954915	299.754192	-51.278717	110.102790	308.809910	-130.298817	12.155867	280.537476	-90.144800	295.649396	155.424616	-110.295498	181.145901	179.629541	-34.341570	209.864750	194.498486	-147.742306	116.360278	1123.511605	-424.365232	200.882492	1113.141242	-438.951477	216.314508	1143.961692	-425.065923	270.685836	1058.851121	-453.133842	404.702142	1011.297718	-454.851762	421.994203	995.069155	-323.165919	331.301818	852.845251	-463.188929	318.211044	770.658454	-440.858742	261.485833	701.139771	-431.220769	348.871880	760.380010	-419.861550	206.166934	587.432288	-407.019434	242.628791	603.533536	-319.172174	137.285295	548.046420	-357.328464	442.811704	503.382663	-350.610686	348.167868	511.570806	-309.287644	323.741869	493.575616	-424.207840	-212.027445	946.824755	-224.813139	-4.651202	84.791683	-432.558303	-8.963467	80.980158	-32.167433	
755	3.7750	503.107210	1393.846010	-125.309961	416.418419	1418.120495	-414.908517	397.706362	1497.482897	-251.428790	400.629932	1320.605562	-270.937481	548.699212	1147.499056	11.283070	748.063204	936.640131	-35.803950	505.634462	1168.645466	-472.308437	737.979516	958.261031	-415.840679	-110.772404	1217.607495	-161.254077	19.369232	1277.636866	-361.045674	82.103690	1236.628287	0.444606	57.872093	1204.732184	-331.426552	101.337357	1173.455043	-49.793361	-74.876673	1262.917107	-111.255500	-85.256701	1272.590930	-190.241412	14.633181	1113.754619	9.224077	-6.192248	1192.437372	-381.886728	98.065961	974.038183	21.435572	170.357665	922.136436	22.382413	208.705837	845.266479	13.030091	197.684946	945.549524	12.612674	269.378812	733.809551	-20.127465	275.473515	722.543909	-139.536335	201.515086	581.253849	0.557081	189.592822	494.655674	-17.505538	135.127237	424.905599	-23.162238	218.240710	486.466856	-42.156947	75.742178	307.756175	-51.319848	106.260270	316.203456	-130.281765	7.569969	290.585902	-90.503002	287.238823	156.734530	-110.204075	173.563764	184.845550	-34.529131	202.793989	198.447915	-147.879070	117.303441	1120.643672	-424.338311	201.801922	1109.150881	-437.858808	217.491413	1139.914581	-424.167924	271.146587	1054.012228	-451.230752	404.908262	1004.902813	-450.789684	420.696521	988.874406	-320.247619	332.577769	845.945882	-460.853496	320.412578	763.377606	-439.345012	264.548652	693.162079	-430.282522	351.189073	753.545309	-418.942967	211.143614	577.950518	-406.928520	246.956120	594.746301	-318.817930	142.884116	536.100679	-357.554156	449.811265	502.351273	-350.622221	354.895965	507.024024	-309.531770	331.138690	488.091181	-424.520495	-212.038678	946.811758	-224.719054	-4.680577	84.795055	-432.537031	-8.957981	80.976754	-32.147153	
